<svg version="1.1" id="Layer_1" xmlns="http://www.w3.org/2000/svg" xmlns:xlink="http://www.w3.org/1999/xlink" x="0px" y="0px"
	 width="100%" viewBox="0 0 192 192" enable-background="new 0 0 192 192" xml:space="preserve">
<path fill="#f1f1f1" opacity="1.000000" stroke="none"
	d="
M110.863541,170.214111
	C93.509377,172.502243 77.078423,170.450150 61.659733,163.256088
	C38.767212,152.574890 26.061749,134.650497 24.646610,109.005180
	C22.682055,73.403191 48.305725,44.281452 81.377541,34.826603
	C102.799133,28.702415 123.523354,30.628881 143.171646,41.517979
	C145.096619,42.584793 147.356567,43.401253 149.007111,46.676243
	C142.677429,45.608887 137.281982,44.298695 131.815659,43.847626
	C109.858673,42.035797 89.436501,45.659454 74.007896,63.064575
	C67.044891,70.919594 62.389908,80.146805 64.300713,91.336319
	C66.385635,103.545425 77.855995,109.228065 88.786293,103.402557
	C94.779015,100.208633 99.342033,95.334488 103.710159,90.279022
	C108.390503,84.862213 112.798553,79.195099 117.689102,73.978134
	C127.544189,63.465294 141.211975,61.162582 153.701523,67.564133
	C163.973633,72.829124 169.382217,86.192833 166.881500,99.519226
	C163.280090,118.711342 151.087814,131.276947 135.218094,141.065109
	C133.434875,142.164963 131.522903,143.056061 129.888458,144.303238
	C155.224167,135.719025 170.550034,118.252678 175.865677,91.653885
	C177.911713,96.301674 177.445328,100.857254 176.905991,105.319862
	C172.327896,143.200119 146.651733,163.618179 114.732803,169.469437
	C113.586403,169.679581 112.447861,169.932571 110.863541,170.214111
M98.226418,38.759235
	C80.543907,41.828735 65.431602,49.762272 53.616871,63.301758
	C42.456226,76.091667 36.627872,90.701164 41.036072,107.942879
	C47.035435,131.408066 67.109352,145.507370 92.306221,146.473602
	C119.302666,147.508850 138.968460,134.350464 152.474945,111.483284
	C154.778961,107.582451 156.116211,103.201340 155.632324,98.572128
	C154.844284,91.033470 151.837997,84.869453 144.580429,81.395927
	C137.129379,77.829781 130.722916,79.751640 124.821632,84.833565
	C121.147537,87.997520 117.941208,91.579300 114.980469,95.421944
	C108.028427,104.444763 100.384872,112.758492 90.236778,118.336464
	C71.902863,128.413849 50.908432,116.494766 50.748222,95.569038
	C50.573864,72.796043 62.903118,57.530552 81.886185,46.949154
	C90.848007,41.953720 100.839249,39.727249 110.889565,37.627274
	C106.952789,37.948135 103.016014,38.269001 98.226418,38.759235
z"/>
</svg>
